REM DIRINDEX 1\2,1\3,1\4,1\5
REM DIRNAME folder01,folder02,folder03,folder04,folder05
TITLE ""
FILE "1Q_t_1749-1758.mp3" MP3
  TRACK 01 AUDIO
    TITLE "3:cjc004_6154"
    INDEX 01 00:00:00
  TRACK 02 AUDIO
    TITLE "0:"
    INDEX 01 00:00:72
  TRACK 03 AUDIO
    TITLE "4:cjc004_6155"
    INDEX 01 00:01:30
  TRACK 04 AUDIO
    TITLE "0:"
    INDEX 01 00:02:42
  TRACK 05 AUDIO
    TITLE "5:cjc004_6156"
    INDEX 01 00:02:67
  TRACK 06 AUDIO
    TITLE "0:"
    INDEX 01 00:06:57
  TRACK 07 AUDIO
    TITLE "3:cjc004_6157"
    INDEX 01 00:07:31
  TRACK 08 AUDIO
    TITLE "0:"
    INDEX 01 00:08:36
  TRACK 09 AUDIO
    TITLE "4:cjc004_6158"
    INDEX 01 00:08:72
  TRACK 10 AUDIO
    TITLE "0:"
    INDEX 01 00:10:12
  TRACK 11 AUDIO
    TITLE "5:cjc004_6159"
    INDEX 01 00:10:37
  TRACK 12 AUDIO
    TITLE "0:"
    INDEX 01 00:15:15
  TRACK 13 AUDIO
    TITLE "3:cjc004_6160"
    INDEX 01 00:15:70
  TRACK 14 AUDIO
    TITLE "0:"
    INDEX 01 00:17:02
  TRACK 15 AUDIO
    TITLE "4:cjc004_6161"
    INDEX 01 00:17:31
  TRACK 16 AUDIO
    TITLE "0:"
    INDEX 01 00:18:62
  TRACK 17 AUDIO
    TITLE "5:cjc004_6162"
    INDEX 01 00:19:16
  TRACK 18 AUDIO
    TITLE "0:"
    INDEX 01 00:24:02
  TRACK 19 AUDIO
    TITLE "3:cjc004_6163"
    INDEX 01 00:24:53
  TRACK 20 AUDIO
    TITLE "0:"
    INDEX 01 00:26:03
  TRACK 21 AUDIO
    TITLE "4:cjc004_6164"
    INDEX 01 00:26:28
  TRACK 22 AUDIO
    TITLE "0:"
    INDEX 01 00:27:32
  TRACK 23 AUDIO
    TITLE "5:cjc004_6165"
    INDEX 01 00:27:51
  TRACK 24 AUDIO
    TITLE "0:"
    INDEX 01 00:34:30
  TRACK 25 AUDIO
    TITLE "3:cjc004_6166"
    INDEX 01 00:35:08
  TRACK 26 AUDIO
    TITLE "0:"
    INDEX 01 00:36:36
  TRACK 27 AUDIO
    TITLE "4:cjc004_6167"
    INDEX 01 00:36:60
  TRACK 28 AUDIO
    TITLE "0:"
    INDEX 01 00:37:65
  TRACK 29 AUDIO
    TITLE "5:cjc004_6168"
    INDEX 01 00:38:16
  TRACK 30 AUDIO
    TITLE "0:"
    INDEX 01 00:43:11
  TRACK 31 AUDIO
    TITLE "3:cjc004_6169"
    INDEX 01 00:43:64
  TRACK 32 AUDIO
    TITLE "0:"
    INDEX 01 00:45:00
  TRACK 33 AUDIO
    TITLE "4:cjc004_6170"
    INDEX 01 00:45:32
  TRACK 34 AUDIO
    TITLE "0:"
    INDEX 01 00:46:29
  TRACK 35 AUDIO
    TITLE "5:cjc004_6171"
    INDEX 01 00:46:54
  TRACK 36 AUDIO
    TITLE "0:"
    INDEX 01 00:50:74
  TRACK 37 AUDIO
    TITLE "3:cjc004_6172"
    INDEX 01 00:51:52
  TRACK 38 AUDIO
    TITLE "0:"
    INDEX 01 00:52:57
  TRACK 39 AUDIO
    TITLE "4:cjc004_6173"
    INDEX 01 00:53:08
  TRACK 40 AUDIO
    TITLE "0:"
    INDEX 01 00:54:30
  TRACK 41 AUDIO
    TITLE "5:cjc004_6174"
    INDEX 01 00:54:56
  TRACK 42 AUDIO
    TITLE "0:"
    INDEX 01 00:59:57
  TRACK 43 AUDIO
    TITLE "3:cjc004_6175"
    INDEX 01 01:00:31
  TRACK 44 AUDIO
    TITLE "0:"
    INDEX 01 01:01:38
  TRACK 45 AUDIO
    TITLE "4:cjc004_6176"
    INDEX 01 01:01:70
  TRACK 46 AUDIO
    TITLE "0:"
    INDEX 01 01:02:71
  TRACK 47 AUDIO
    TITLE "5:cjc004_6177"
    INDEX 01 01:03:24
  TRACK 48 AUDIO
    TITLE "0:"
    INDEX 01 01:07:29
  TRACK 49 AUDIO
    TITLE "3:cjc004_6178"
    INDEX 01 01:08:05
  TRACK 50 AUDIO
    TITLE "0:"
    INDEX 01 01:09:14
  TRACK 51 AUDIO
    TITLE "4:cjc004_6179"
    INDEX 01 01:09:46
  TRACK 52 AUDIO
    TITLE "0:"
    INDEX 01 01:10:57
  TRACK 53 AUDIO
    TITLE "5:cjc004_6180"
    INDEX 01 01:11:09
  TRACK 54 AUDIO
    TITLE "0:"
    INDEX 01 01:16:50
  TRACK 55 AUDIO
    TITLE "3:cjc004_6181"
    INDEX 01 01:17:26
  TRACK 56 AUDIO
    TITLE "0:"
    INDEX 01 01:18:60
  TRACK 57 AUDIO
    TITLE "4:cjc004_6182"
    INDEX 01 01:19:13
  TRACK 58 AUDIO
    TITLE "0:"
    INDEX 01 01:20:20
  TRACK 59 AUDIO
    TITLE "5:cjc004_6183"
    INDEX 01 01:20:46
  TRACK 60 AUDIO
    TITLE "0:"
    INDEX 01 01:24:63
